<svg xmlns="http://www.w3.org/2000/svg" width="700" height="639"><path fill="#4a4a4a" fill-rule="evenodd" stroke="#4a4a4a" stroke-linecap="square" stroke-width="2" d="M368 75v69M368 144l3-10.8h-6zM368 260v68M368 328l3-10.8h-6zM368 445v67M186.5 387v89.02M186.5 476.02l3-10.8h-6zM277.5 387h-91M368 512H261M261 512l10.8 3v-6zM451 202.5h91.5M550 202.5l-10.8-3v6z"/><rect width="141" height="67" x="298" y="8" fill="#eb524c" fill-rule="evenodd" stroke="#4a4a4a" stroke-width="2" rx="10"/><rect width="141" height="67" x="552.54" y="169" fill="#2b3d50" fill-rule="evenodd" stroke="#1b242e" stroke-width="2" rx="10"/><rect width="141" height="67" x="552.54" y="354" fill="#2b3d50" fill-rule="evenodd" stroke="#1b242e" stroke-width="2" rx="10"/><path fill="#fff" fill-rule="evenodd" stroke="#4a4a4a" stroke-width="2" d="M368 260l-90-57.5 90-57.5 90 57.5zM368 445l-90-57.5 90-57.5 90 57.5z"/><rect width="141" height="67" x="115.97" y="477.41" fill="#2b3d50" fill-rule="evenodd" stroke="#1b242e" stroke-width="2" rx="10"/><text x="186.99" y="501.21" font-family="sans-serif" font-size="14.67" font-weight="400" letter-spacing="0" word-spacing="0" style="line-height:1"><tspan style="-inkscape-font-specification:sans-serif;text-align:center" x="186.99" y="501.21" fill="#fff" font-size="13.33" text-anchor="middle">Authorization</tspan><tspan style="-inkscape-font-specification:sans-serif;text-align:center" x="186.99" y="515.88" fill="#fff" font-size="13.33" text-anchor="middle">Code Grant</tspan><tspan style="-inkscape-font-specification:sans-serif;text-align:center" x="186.99" y="530.54" fill="#fff" font-size="13.33" text-anchor="middle">with PKCE</tspan></text><text x="623.56" y="385.14" font-family="sans-serif" font-size="14.67" font-weight="400" letter-spacing="0" word-spacing="0" style="line-height:1"><tspan style="-inkscape-font-specification:sans-serif;text-align:center" x="623.56" y="385.14" fill="#fff" font-size="13.33" text-anchor="middle">Authorization</tspan><tspan style="-inkscape-font-specification:sans-serif;text-align:center" x="623.56" y="399.8" fill="#fff" font-size="13.33" text-anchor="middle">Code Grant</tspan></text><text x="622.45" y="200.14" font-family="sans-serif" font-size="14.67" font-weight="400" letter-spacing="0" word-spacing="0" style="line-height:1"><tspan style="-inkscape-font-specification:sans-serif;text-align:center" x="622.45" y="200.14" fill="#fff" font-size="13.33" text-anchor="middle">Client Credentials</tspan><tspan style="-inkscape-font-specification:sans-serif;text-align:center" x="622.45" y="214.8" fill="#fff" font-size="13.33" text-anchor="middle">Grant</tspan></text><path fill="#4a4a4a" fill-rule="evenodd" stroke="#4a4a4a" stroke-linecap="square" stroke-width="1.95" d="M458 387.5h86.86"/><path fill="#4a4a4a" fill-rule="evenodd" stroke="#4a4a4a" stroke-linecap="square" stroke-width="2" d="M549.5 387.5l-10.8-3v6z"/><text x="368.22" y="46.35" font-family="sans-serif" font-size="14.67" font-weight="400" letter-spacing="0" word-spacing="0" style="line-height:1"><tspan style="-inkscape-font-specification:sans-serif;text-align:center" x="368.22" y="46.35" fill="#fff" font-size="13.33" text-anchor="middle">Start</tspan></text><text x="368.52" y="200.14" font-family="sans-serif" font-size="14.67" font-weight="400" letter-spacing="0" word-spacing="0" style="line-height:1"><tspan style="-inkscape-font-specification:sans-serif;text-align:center" x="368.52" y="200.14" font-size="13.33" text-anchor="middle">Access Token</tspan><tspan style="-inkscape-font-specification:sans-serif;text-align:center" x="368.52" y="214.8" font-size="13.33" text-anchor="middle">Owner?</tspan></text><text x="496.45" y="196.69" font-family="sans-serif" font-size="14.67" font-weight="400" letter-spacing="0" word-spacing="0" style="line-height:1"><tspan style="-inkscape-font-specification:sans-serif;text-align:center" x="496.45" y="196.69" font-size="13.33" text-anchor="middle">Machine</tspan></text><text x="388.31" y="298.77" font-family="sans-serif" font-size="14.67" font-weight="400" letter-spacing="0" word-spacing="0" style="line-height:1"><tspan style="-inkscape-font-specification:sans-serif;text-align:center" x="388.31" y="298.77" font-size="13.33" text-anchor="middle">User</tspan></text><text x="501.36" y="381.63" font-family="sans-serif" font-size="14.67" font-weight="400" letter-spacing="0" word-spacing="0" style="line-height:1"><tspan style="-inkscape-font-specification:sans-serif;text-align:center" x="501.36" y="381.63" font-size="13.33" text-anchor="middle">Server app</tspan></text><text x="314.21" y="505.28" font-family="sans-serif" font-size="14.67" font-weight="400" letter-spacing="0" word-spacing="0" style="line-height:1"><tspan style="-inkscape-font-specification:sans-serif;text-align:center" x="314.21" y="505.28" font-size="13.33" text-anchor="middle">Native app</tspan></text><text x="231.25" y="365.3" font-family="sans-serif" font-size="14.67" font-weight="400" letter-spacing="0" word-spacing="0" style="line-height:1"><tspan style="-inkscape-font-specification:sans-serif;text-align:center" x="231.25" y="365.3" font-size="13.33" text-anchor="middle">Browser based</tspan><tspan style="-inkscape-font-specification:sans-serif;text-align:center" x="231.25" y="379.96" font-size="13.33" text-anchor="middle">app</tspan></text><text x="368.09" y="391.18" font-family="sans-serif" font-size="14.67" font-weight="400" letter-spacing="0" word-spacing="0" style="line-height:1"><tspan style="-inkscape-font-specification:sans-serif;text-align:center" x="368.09" y="391.18" font-size="13.33" text-anchor="middle">Client Type?</tspan></text></svg>